<?xml version="1.0" encoding="UTF-8" standalone="no"?>
<!-- Created with Inkscape (http://www.inkscape.org/) -->

<svg
   width="1440"
   height="400"
   viewBox="0 0 381 105.83333"
   version="1.1"
   id="svg1"
   inkscape:version="1.4.3 (0d15f75042, 2025-12-25)"
   sodipodi:docname="tomo-pipi-sike.svg"
   xml:space="preserve"
   xmlns:inkscape="http://www.inkscape.org/namespaces/inkscape"
   xmlns:sodipodi="http://sodipodi.sourceforge.net/DTD/sodipodi-0.dtd"
   xmlns="http://www.w3.org/2000/svg"
   xmlns:svg="http://www.w3.org/2000/svg"><sodipodi:namedview
     id="namedview1"
     pagecolor="#ffffff"
     bordercolor="#eeeeee"
     borderopacity="1"
     inkscape:showpageshadow="0"
     inkscape:pageopacity="0"
     inkscape:pagecheckerboard="0"
     inkscape:deskcolor="#505050"
     inkscape:document-units="mm"
     showgrid="true"
     inkscape:zoom="0.70710678"
     inkscape:cx="542.3509"
     inkscape:cy="166.8772"
     inkscape:window-width="1920"
     inkscape:window-height="1080"
     inkscape:window-x="0"
     inkscape:window-y="0"
     inkscape:window-maximized="0"
     inkscape:current-layer="layer1"><inkscape:grid
       id="grid1"
       units="px"
       originx="-63.5"
       originy="-31.75"
       spacingx="7.9375"
       spacingy="7.9375"
       empcolor="#000000"
       empopacity="0.30196078"
       color="#000000"
       opacity="0.14901961"
       empspacing="4"
       dotted="false"
       gridanglex="30"
       gridanglez="30"
       visible="true" /><inkscape:grid
       id="grid3"
       units="px"
       originx="-63.5"
       originy="-31.75"
       spacingx="3.96875"
       spacingy="3.96875"
       empcolor="#000000"
       empopacity="0.30196078"
       color="#000000"
       opacity="0.10196078"
       empspacing="8"
       dotted="false"
       gridanglex="30"
       gridanglez="30"
       visible="true" /></sodipodi:namedview><defs
     id="defs1" /><g
     inkscape:label="Layer 1"
     inkscape:groupmode="layer"
     id="layer1"
     transform="translate(-63.5,-31.75)"><path
       d="m 107.12303,89.927973 0.39577,-23.350345 18.83858,-22.083882 20.57996,23.508649 -0.39577,21.529808 z m -3.087,6.094828 45.51338,-0.47492 c 1.97884,-0.39577 2.92869,-1.34561 2.92869,-3.007838 l 0.47492,-25.804107 c 0,-0.712384 -0.23746,-1.266459 -0.71238,-1.820535 L 128.57368,37.844835 c -0.63323,-0.712384 -1.42477,-1.028998 -2.29546,-1.028998 -0.87069,0 -1.58307,0.395768 -2.29545,1.108151 l -21.68812,25.566646 c -0.47492,0.554076 -0.71238,1.187306 -0.71238,1.899689 l -0.55408,27.54549 c 0,1.662228 1.029,2.691218 3.00784,3.086988 z"
       id="text2"
       style="font-size:79.1537px;line-height:0em;font-family:'linja lipamanka';-inkscape-font-specification:'linja lipamanka';letter-spacing:0px;word-spacing:0px;fill:#ff7800;stroke-width:2.38124;stroke-miterlimit:10;paint-order:markers stroke fill"
       aria-label="tomo" /><path
       d="m 255.78948,96.814341 c 1.97885,-0.39577 3.00785,-1.42477 3.00785,-3.08699 l -0.0792,-6.569758 6.41145,-0.15831 c 0.79154,0 1.50392,-0.31661 2.058,-0.87069 0.55407,-0.55408 0.87069,-1.26646 0.87069,-2.058 0,-0.79153 -0.23746,-1.50392 -0.79154,-2.13715 -0.55407,-0.63323 -1.26646,-0.94984 -2.2163,-0.94984 l -6.3323,0.0791 -0.0791,-8.07367 6.96552,-0.15831 c 1.97885,-0.39577 2.92869,-1.42477 2.92869,-3.087 -0.39577,-1.978839 -1.34561,-2.928684 -2.84953,-2.928684 l -7.12384,0.158308 -0.0792,-7.757063 7.28214,0.07915 c 1.58308,0 2.53292,-0.949845 2.92869,-2.928687 0,-1.662228 -1.029,-2.691226 -3.00784,-3.086995 l -7.28214,-0.07915 v -3.086995 c -0.31662,-1.978842 -1.26646,-2.928687 -2.84954,-2.928687 -2.13715,0.158308 -3.16614,1.187306 -3.16614,3.007841 v 2.849533 l -7.51961,-0.07915 c -1.66222,0 -2.69122,0.949844 -3.08699,2.928687 0.39577,2.057996 1.34561,3.086994 3.00784,3.086994 l 7.67791,0.07915 0.0791,8.073677 -7.36129,0.158308 c -0.87069,0 -1.50392,0.316615 -2.058,0.87069 -0.55407,0.63323 -0.87069,1.345611 -0.87069,2.216301 0.39577,1.97885 1.42477,2.92869 3.087,2.92869 l 7.28214,-0.15831 0.0791,8.07368 -6.4906,0.0791 c -1.97885,0.39577 -2.92869,1.42477 -2.92869,3.087 0,0.87069 0.31661,1.58307 0.94984,2.13715 0.55408,0.55407 1.26646,0.87069 2.13715,0.87069 l 6.3323,-0.15831 0.0791,6.56976 c 0,0.87069 0.31662,1.58307 0.87069,2.13715 0.55408,0.55407 1.26646,0.87069 2.13715,0.87069 z m -8.07367,-51.449905 c 1.26646,0 2.37461,-0.474922 3.2453,-1.424766 0.87069,-0.870691 1.34561,-1.978843 1.34561,-3.324456 0,-1.345613 -0.47492,-2.453765 -1.34561,-3.403609 -0.87069,-0.949844 -1.97884,-1.424767 -3.2453,-1.424767 -1.26646,0 -2.37461,0.474923 -3.2453,1.424767 -0.8707,0.949844 -1.34562,2.057996 -1.34562,3.403609 0,1.345613 0.47492,2.453765 1.34562,3.324456 0.87069,0.949844 1.97884,1.424766 3.2453,1.424766 z m 15.43497,0.237461 c 1.26646,0 2.37461,-0.474922 3.2453,-1.424766 0.87069,-0.870691 1.34561,-1.978843 1.34561,-3.324456 0,-1.345613 -0.47492,-2.453764 -1.34561,-3.403609 -0.87069,-0.870691 -1.97884,-1.345613 -3.2453,-1.345613 -1.26646,0 -2.37461,0.474922 -3.2453,1.345613 -0.87069,0.949845 -1.34562,2.057996 -1.34562,3.403609 0,1.345613 0.47493,2.453765 1.34562,3.324456 0.87069,0.949844 1.97884,1.424766 3.2453,1.424766 z"
       id="text2-5"
       style="font-size:79.1537px;line-height:0em;font-family:'linja lipamanka';-inkscape-font-specification:'linja lipamanka';letter-spacing:0px;word-spacing:0px;fill:#ff7800;stroke-width:2.38124;stroke-miterlimit:10;paint-order:markers stroke fill"
       aria-label="pipi" /><path
       d="m 382.58308,84.387213 c -2.61207,0 -5.06584,-0.79154 -7.36129,-2.29546 -2.29546,-1.50392 -4.19515,-3.72022 -5.54076,-6.72806 -1.42477,-3.00784 -2.13715,-6.728068 -2.13715,-11.239829 0,-1.820536 0.15831,-3.561917 0.39577,-5.065837 0.23746,-1.503921 0.55407,-2.928687 1.02899,-4.115993 0.47493,-1.187305 1.029,-2.216303 1.74139,-3.086994 0.71238,-0.870691 1.50392,-1.583074 2.45376,-2.13715 0.87069,-0.554076 1.89969,-1.028998 3.00784,-1.266459 1.029,-0.237461 2.21631,-0.395769 3.56192,-0.395769 h 1.58307 c 3.2453,0 6.01568,1.583074 8.31114,4.670069 2.2163,3.166148 3.32446,7.677909 3.32446,13.535283 0,5.778219 -1.029,10.289979 -3.087,13.376979 -2.05799,3.16614 -4.51176,4.74922 -7.28214,4.74922 z m -0.15831,6.01568 c 4.67007,0 8.62776,-2.13715 11.79391,-6.4906 3.16614,-4.35346 4.74922,-10.13168 4.74922,-17.334665 0,-7.440448 -1.66223,-13.376975 -4.90753,-17.888736 -3.2453,-4.432608 -7.5196,-6.648911 -12.74375,-6.648911 h -1.42476 c -5.61992,0 -10.05252,1.820535 -13.37698,5.540759 -3.32446,3.720224 -4.98668,9.260983 -4.98668,16.622277 0,5.382456 1.029,10.052516 3.00784,13.931056 1.97884,3.87853 4.51176,6.88637 7.67791,9.02352 3.16614,2.13715 6.56975,3.2453 10.21082,3.2453 z m -1.34561,4.590908 c -4.11599,0 -7.99452,-1.10815 -11.55644,-3.403598 -3.64107,-2.29546 -6.56976,-5.69907 -8.78606,-10.21083 -2.29546,-4.51176 -3.40361,-10.13168 -3.40361,-16.859741 0,-6.332296 0.94985,-11.398133 2.84953,-15.276664 1.82054,-3.878532 4.51177,-6.728065 7.99453,-8.5486 3.40361,-1.820535 7.5196,-2.849533 12.34798,-2.928687 5.93652,0.395768 10.60659,1.741381 14.16851,4.115992 3.56191,2.453765 6.09483,5.778221 7.59875,9.973367 1.50392,4.195146 2.29546,9.260983 2.29546,15.039203 0,5.46161 -1.10815,10.36914 -3.40361,14.56428 -2.29546,4.19515 -5.22414,7.5196 -8.78606,9.89421 -3.56192,2.453768 -7.36129,3.641068 -11.31898,3.641068 z m -0.0792,6.015689 c 5.3033,0 10.13167,-1.503919 14.64343,-4.511769 4.51176,-3.00784 8.07368,-7.123828 10.84406,-12.268818 2.77038,-5.14499 4.11599,-10.92321 4.11599,-17.33466 0,-6.253142 -0.94984,-11.952209 -2.77038,-17.097199 -1.82053,-5.144991 -4.90753,-9.340137 -9.26098,-12.585439 C 394.21863,34.045457 388.2821,32.224922 380.7625,31.75 c -5.38246,0 -10.28998,1.108151 -14.72259,3.245301 -4.51176,2.216304 -8.07368,5.699067 -10.68575,10.527443 -2.69123,4.828376 -4.03684,11.160672 -4.03684,18.996888 0,7.519601 1.42477,14.010201 4.19515,19.471811 2.77038,5.46161 6.41145,9.656748 10.92321,12.585438 4.51176,2.92869 9.34013,4.432609 14.56428,4.432609 z"
       id="text2-5-1"
       style="font-size:79.1537px;line-height:0em;font-family:'linja lipamanka';-inkscape-font-specification:'linja lipamanka';letter-spacing:0px;word-spacing:0px;fill:#ff7800;stroke-width:2.38124;stroke-miterlimit:10;paint-order:markers stroke fill"
       aria-label="sike" /><path
       d="m 105.96845,128.42586 q -2.36436,0 -3.51276,-1.1484 -1.1484,-1.1484 -1.1484,-3.37765 v -4.23333 h -2.094149 v -2.5445 h 2.094149 v -3.24255 h 3.40017 v 3.24255 h 3.26507 v 2.5445 h -3.26507 v 4.09822 q 0,0.94574 0.42784,1.41862 0.45035,0.47287 1.41861,0.47287 0.29273,0 0.60798,-0.0676 0.33776,-0.0676 0.72057,-0.18014 l 0.49538,2.47695 q -0.47287,0.24769 -1.12588,0.3828 -0.65301,0.15762 -1.28351,0.15762 z m 8.87198,0 q -1.7789,0 -3.10744,-0.69804 -1.30603,-0.69805 -2.0266,-2.00408 -0.72056,-1.30603 -0.72056,-3.08492 0,-1.7789 0.72056,-3.06241 0.72057,-1.28351 2.0266,-1.98156 1.32854,-0.69805 3.10744,-0.69805 1.7789,0 3.08492,0.69805 1.32855,0.69805 2.04911,2.00408 0.74309,1.28351 0.74309,3.03989 0,1.77889 -0.74309,3.08492 -0.72056,1.30603 -2.04911,2.00408 -1.30602,0.69804 -3.08492,0.69804 z m 0,-2.5445 q 1.10337,0 1.7789,-0.78811 0.67553,-0.81064 0.67553,-2.45443 0,-1.6438 -0.67553,-2.4094 -0.67553,-0.78812 -1.7789,-0.78812 -1.08085,0 -1.75638,0.78812 -0.67553,0.7656 -0.67553,2.4094 0,1.64379 0.67553,2.45443 0.67553,0.78811 1.75638,0.78811 z m 7.9938,2.29681 v -11.05619 h 3.33262 v 2.07163 h -0.2477 q 0.29273,-0.69805 0.81064,-1.21596 0.51791,-0.51791 1.23847,-0.78812 0.72057,-0.29273 1.57624,-0.29273 1.28351,0 2.13918,0.60798 0.85568,0.60798 1.21596,1.86897 h -0.31525 q 0.49539,-1.1484 1.50869,-1.80142 1.03581,-0.67553 2.36436,-0.67553 1.28351,0 2.09414,0.51791 0.83316,0.49539 1.23848,1.5312 0.40531,1.0133 0.40531,2.58954 v 6.64272 h -3.40017 v -6.53013 q 0,-1.10337 -0.36028,-1.59876 -0.33777,-0.51791 -1.17092,-0.51791 -0.6305,0 -1.10337,0.31525 -0.47287,0.29273 -0.72057,0.87819 -0.22517,0.56294 -0.22517,1.3961 v 6.05726 h -3.40018 v -6.53013 q 0,-1.10337 -0.36028,-1.59876 -0.33776,-0.51791 -1.17092,-0.51791 -0.65301,0 -1.10337,0.31525 -0.45035,0.29273 -0.69804,0.87819 -0.2477,0.56294 -0.2477,1.3961 v 6.05726 z m 25.28737,0.24769 q -1.7789,0 -3.10744,-0.69804 -1.30603,-0.69805 -2.02659,-2.00408 -0.72057,-1.30603 -0.72057,-3.08492 0,-1.7789 0.72057,-3.06241 0.72056,-1.28351 2.02659,-1.98156 1.32854,-0.69805 3.10744,-0.69805 1.7789,0 3.08493,0.69805 1.32854,0.69805 2.04911,2.00408 0.74308,1.28351 0.74308,3.03989 0,1.77889 -0.74308,3.08492 -0.72057,1.30603 -2.04911,2.00408 -1.30603,0.69804 -3.08493,0.69804 z m 0,-2.5445 q 1.10337,0 1.7789,-0.78811 0.67553,-0.81064 0.67553,-2.45443 0,-1.6438 -0.67553,-2.4094 -0.67553,-0.78812 -1.7789,-0.78812 -1.08085,0 -1.75638,0.78812 -0.67553,0.7656 -0.67553,2.4094 0,1.64379 0.67553,2.45443 0.67553,0.78811 1.75638,0.78811 z"
       id="text3"
       style="font-size:22.5177px;line-height:0em;font-family:'Nunito Sans';-inkscape-font-specification:'Nunito Sans @opsz=12,wght=800,wdth=100,YTLC=500';font-variation-settings:'opsz' 12, 'wdth' 100, 'wght' 800, 'YTLC' 500;text-align:center;letter-spacing:0px;word-spacing:0px;text-anchor:middle;stroke-width:2.38125;stroke-miterlimit:10;paint-order:markers stroke fill"
       aria-label="tomo" /><path
       d="m 235.53548,132.23136 v -15.10938 h 3.33262 v 2.18422 h -0.22518 q 0.33777,-1.08085 1.35106,-1.73387 1.03582,-0.67553 2.36436,-0.67553 1.44114,0 2.52199,0.69805 1.10336,0.69805 1.71134,1.98156 0.60798,1.28351 0.60798,3.06241 0,1.77889 -0.60798,3.08492 -0.60798,1.30603 -1.68883,2.00408 -1.08085,0.69804 -2.5445,0.69804 -1.30602,0 -2.31932,-0.63049 -1.0133,-0.65301 -1.37358,-1.68883 h 0.27021 v 6.12482 z m 5.80957,-6.35 q 1.08085,0 1.75638,-0.78811 0.67553,-0.81064 0.67553,-2.45443 0,-1.6438 -0.67553,-2.4094 -0.67553,-0.78812 -1.75638,-0.78812 -1.10337,0 -1.7789,0.78812 -0.67553,0.7656 -0.67553,2.4094 0,1.64379 0.67553,2.45443 0.67553,0.78811 1.7789,0.78811 z m 7.79114,-10.89856 v -3.175 h 3.67038 v 3.175 z m 0.1351,13.19537 v -11.05619 h 3.40017 v 11.05619 z m 6.03474,4.05319 v -15.10938 h 3.33262 v 2.18422 h -0.22518 q 0.33776,-1.08085 1.35106,-1.73387 1.03581,-0.67553 2.36436,-0.67553 1.44113,0 2.52198,0.69805 1.10337,0.69805 1.71135,1.98156 0.60797,1.28351 0.60797,3.06241 0,1.77889 -0.60797,3.08492 -0.60798,1.30603 -1.68883,2.00408 -1.08085,0.69804 -2.5445,0.69804 -1.30603,0 -2.31932,-0.63049 -1.0133,-0.65301 -1.37358,-1.68883 h 0.27021 v 6.12482 z m 5.80956,-6.35 q 1.08085,0 1.75638,-0.78811 0.67553,-0.81064 0.67553,-2.45443 0,-1.6438 -0.67553,-2.4094 -0.67553,-0.78812 -1.75638,-0.78812 -1.10336,0 -1.7789,0.78812 -0.67553,0.7656 -0.67553,2.4094 0,1.64379 0.67553,2.45443 0.67554,0.78811 1.7789,0.78811 z m 7.79114,-10.89856 v -3.175 h 3.67039 v 3.175 z m 0.13511,13.19537 v -11.05619 h 3.40017 v 11.05619 z"
       id="text3-1"
       style="font-size:22.5177px;line-height:0em;font-family:'Nunito Sans';-inkscape-font-specification:'Nunito Sans @opsz=12,wght=800,wdth=100,YTLC=500';font-variation-settings:'opsz' 12, 'wdth' 100, 'wght' 800, 'YTLC' 500;text-align:center;letter-spacing:0px;word-spacing:0px;text-anchor:middle;stroke-width:2.38125;stroke-miterlimit:10;paint-order:markers stroke fill"
       aria-label="pipi" /><path
       d="m 365.61401,128.42586 q -0.96826,0 -1.86897,-0.15762 -0.9007,-0.15762 -1.64379,-0.42784 -0.74308,-0.27021 -1.30602,-0.67553 l 0.81063,-2.20673 q 0.56295,0.33776 1.21596,0.60798 0.67553,0.24769 1.3961,0.3828 0.72056,0.1351 1.41861,0.1351 0.96826,0 1.3961,-0.29273 0.45035,-0.31524 0.45035,-0.81063 0,-0.45036 -0.29273,-0.67553 -0.29273,-0.22518 -0.85567,-0.31525 l -2.36436,-0.42784 q -1.3961,-0.24769 -2.1617,-1.0133 -0.74308,-0.78811 -0.74308,-2.00407 0,-1.12589 0.63049,-1.93652 0.6305,-0.83316 1.73387,-1.26099 1.12588,-0.45036 2.5445,-0.45036 0.81063,0 1.57624,0.13511 0.7656,0.1351 1.44113,0.40532 0.69805,0.27021 1.23847,0.72056 l -0.85567,2.18422 q -0.42784,-0.33777 -1.0133,-0.58546 -0.58546,-0.24769 -1.19344,-0.3828 -0.60797,-0.15762 -1.1484,-0.15762 -1.01329,0 -1.46365,0.33776 -0.45035,0.31525 -0.45035,0.81064 0,0.3828 0.24769,0.65301 0.27021,0.2477 0.81064,0.33777 l 2.36436,0.42783 q 1.46365,0.2477 2.22925,0.99078 0.7656,0.72057 0.7656,1.98156 0,1.1484 -0.60798,1.98156 -0.60797,0.81063 -1.71134,1.26099 -1.10337,0.42783 -2.58954,0.42783 z m 6.71029,-13.44306 v -3.175 h 3.67039 v 3.175 z m 0.13511,13.19537 v -11.05619 h 3.40017 v 11.05619 z m 6.03473,0 v -15.87498 h 3.40018 v 9.38988 h 0.045 l 4.0757,-4.57109 h 4.03067 l -5.24662,5.92215 v -1.2835 l 5.4718,6.41754 h -4.09822 l -4.23333,-4.77375 h -0.045 v 4.77375 z m 18.11703,0.24769 q -1.95904,0 -3.37766,-0.69804 -1.39609,-0.72057 -2.1617,-2.00408 -0.74308,-1.30603 -0.74308,-3.06241 0,-1.71134 0.72057,-2.99485 0.72056,-1.30603 2.00407,-2.02659 1.30603,-0.74309 2.94982,-0.74309 1.62127,0 2.79219,0.69805 1.17092,0.67553 1.80142,1.93652 0.65301,1.26099 0.65301,2.99486 v 0.85567 h -8.12889 v -1.75638 h 5.67446 l -0.36028,0.31525 q 0,-1.37358 -0.60798,-2.07163 -0.58546,-0.72057 -1.68882,-0.72057 -0.83316,0 -1.41862,0.3828 -0.58546,0.3828 -0.90071,1.10337 -0.31524,0.72057 -0.31524,1.73386 v 0.18014 q 0,1.14841 0.33776,1.89149 0.36028,0.72057 1.05833,1.08085 0.72057,0.36028 1.7789,0.36028 0.90071,0 1.82393,-0.27021 0.92323,-0.27021 1.66631,-0.83315 l 0.90071,2.27428 q -0.83315,0.6305 -2.04911,1.0133 -1.19344,0.36028 -2.40939,0.36028 z"
       id="text3-1-0"
       style="font-size:22.5177px;line-height:0em;font-family:'Nunito Sans';-inkscape-font-specification:'Nunito Sans @opsz=12,wght=800,wdth=100,YTLC=500';font-variation-settings:'opsz' 12, 'wdth' 100, 'wght' 800, 'YTLC' 500;text-align:center;letter-spacing:0px;word-spacing:0px;text-anchor:middle;stroke-width:2.38125;stroke-miterlimit:10;paint-order:markers stroke fill"
       aria-label="sike" /></g></svg>
