<?xml version="1.0" encoding="UTF-8" standalone="no"?>
<!-- Created with Inkscape (http://www.inkscape.org/) -->

<svg
   width="1440"
   height="450"
   viewBox="0 0 381 119.0625"
   version="1.1"
   id="svg1"
   inkscape:version="1.4.3 (0d15f75042, 2025-12-25)"
   sodipodi:docname="tomopipi-pipisike.svg"
   xml:space="preserve"
   xmlns:inkscape="http://www.inkscape.org/namespaces/inkscape"
   xmlns:sodipodi="http://sodipodi.sourceforge.net/DTD/sodipodi-0.dtd"
   xmlns="http://www.w3.org/2000/svg"
   xmlns:svg="http://www.w3.org/2000/svg"><sodipodi:namedview
     id="namedview1"
     pagecolor="#ffffff"
     bordercolor="#eeeeee"
     borderopacity="1"
     inkscape:showpageshadow="0"
     inkscape:pageopacity="0"
     inkscape:pagecheckerboard="0"
     inkscape:deskcolor="#505050"
     inkscape:document-units="mm"
     showgrid="true"
     inkscape:zoom="1"
     inkscape:cx="785"
     inkscape:cy="394"
     inkscape:window-width="1920"
     inkscape:window-height="1080"
     inkscape:window-x="0"
     inkscape:window-y="0"
     inkscape:window-maximized="0"
     inkscape:current-layer="layer1"><inkscape:grid
       id="grid1"
       units="px"
       originx="-63.5"
       originy="-31.75"
       spacingx="7.9375"
       spacingy="7.9375"
       empcolor="#000000"
       empopacity="0.30196078"
       color="#000000"
       opacity="0.14901961"
       empspacing="4"
       dotted="false"
       gridanglex="30"
       gridanglez="30"
       visible="true" /><inkscape:grid
       id="grid3"
       units="px"
       originx="-63.5"
       originy="-31.75"
       spacingx="3.96875"
       spacingy="3.96875"
       empcolor="#000000"
       empopacity="0.30196078"
       color="#000000"
       opacity="0.10196078"
       empspacing="8"
       dotted="false"
       gridanglex="30"
       gridanglez="30"
       visible="true" /></sodipodi:namedview><defs
     id="defs1" /><g
     inkscape:label="Layer 1"
     inkscape:groupmode="layer"
     id="layer1"
     transform="translate(-63.5,-31.75)"><path
       d="m 142.17198,106.82856 0.71239,-33.798628 c 1.97884,-2.13715 6.4906,-6.886372 13.53528,-14.247666 0,-0.07915 0.63323,-0.791537 1.97884,-2.13715 l 0.15831,-0.237461 c 0.0791,0 0.15831,-0.07915 0.15831,-0.158308 l 1.10815,-1.187305 c 0.0791,-0.07915 4.67007,-4.828376 13.77274,-14.405974 l 33.56117,34.352707 -0.63323,31.186555 z m -3.16615,6.41145 70.68426,-0.71238 c 0.87069,0 1.58307,-0.31662 2.2163,-0.87069 0.55408,-0.55408 0.87069,-1.34561 0.94985,-2.21631 l 0.71238,-35.698315 c 0,-0.791537 -0.31661,-1.583074 -0.87069,-2.295457 L 175.81231,33.769696 c -0.63323,-0.63323 -1.42477,-0.949845 -2.29546,-0.949845 -0.87069,0 -1.58308,0.316615 -2.29546,1.028999 l -33.87778,35.619165 c -0.47493,0.63323 -0.79154,1.345613 -0.87069,2.13715 l -0.71239,38.547855 c 0,0.87069 0.31662,1.58307 0.94985,2.13715 0.63323,0.63323 1.42476,0.94984 2.29545,0.94984 z m 43.93031,-41.713986 c 1.42476,0 2.61207,-0.474923 3.64107,-1.503921 0.94984,-1.028998 1.42476,-2.216303 1.42476,-3.561916 0,-1.424767 -0.47492,-2.612072 -1.42476,-3.641071 -1.029,-0.949844 -2.21631,-1.424766 -3.64107,-1.424766 -1.34562,0 -2.53292,0.474922 -3.56192,1.424766 -1.029,1.028999 -1.50392,2.216304 -1.50392,3.641071 0,1.345613 0.47492,2.532918 1.50392,3.561916 1.029,1.028998 2.2163,1.503921 3.56192,1.503921 z m -7.75707,27.782949 c 0.8707,0 1.66223,-0.316615 2.29546,-0.949844 0.55408,-0.63323 0.87069,-1.345613 0.87069,-2.216304 l -0.0791,-4.115993 6.25314,-0.07915 c 0.87069,0 1.66223,-0.316615 2.29546,-1.028998 0.55407,-0.63323 0.87069,-1.345613 0.87069,-2.216304 0,-0.870691 -0.31662,-1.662228 -0.94984,-2.295457 -0.63323,-0.554076 -1.42477,-0.870691 -2.29546,-0.870691 l -6.25314,0.07915 -0.0792,-2.77038 h 7.12383 c 2.058,-0.316615 3.087,-1.345613 3.087,-3.166148 0,-0.870691 -0.31662,-1.662228 -0.87069,-2.295457 -0.63323,-0.554076 -1.42477,-0.870691 -2.29546,-0.870691 l -7.12383,-0.07915 -0.0792,-4.2743 c 0,-0.870691 -0.31661,-1.662228 -0.94984,-2.295457 -0.63323,-0.554076 -1.42477,-0.870691 -2.29546,-0.870691 -2.13715,0.395769 -3.16615,1.50392 -3.16615,3.245302 l 0.0792,4.115992 -8.5486,-0.07915 c -0.87069,0 -1.66223,0.316615 -2.29546,0.87069 -0.63323,0.63323 -0.94984,1.424767 -0.94984,2.295458 0,0.87069 0.31661,1.662228 0.94984,2.295457 0.63323,0.63323 1.34561,0.949845 2.2163,0.949845 l 8.70691,0.07915 0.0792,2.928687 -7.20299,0.07915 c -0.87069,0 -1.66223,0.316615 -2.21631,0.870691 -0.63322,0.554076 -0.94984,1.266459 -0.94984,2.13715 0.15831,2.216303 1.18731,3.324455 3.16615,3.324455 l 7.28214,-0.07915 0.0791,4.195147 c 0,0.87069 0.31662,1.583074 0.94985,2.13715 0.55407,0.633229 1.26646,0.949844 2.13715,0.949844 z M 166.0764,71.209409 c 1.34561,0 2.53292,-0.474922 3.56192,-1.503921 1.02899,-0.949844 1.50392,-2.137149 1.50392,-3.561916 0,-1.345613 -0.47493,-2.532919 -1.50392,-3.561917 -1.029,-1.028998 -2.21631,-1.50392 -3.56192,-1.50392 -1.42477,0 -2.61207,0.474922 -3.56192,1.50392 -1.029,1.028998 -1.50392,2.216304 -1.50392,3.561917 0,1.424767 0.47492,2.612072 1.50392,3.561916 0.94985,1.028999 2.13715,1.503921 3.56192,1.503921 z"
       id="text2"
       style="font-size:79.1537px;line-height:0em;font-family:'linja lipamanka';-inkscape-font-specification:'linja lipamanka';text-align:center;letter-spacing:0px;word-spacing:0px;text-anchor:middle;fill:#ff7800;stroke-width:2.38124;stroke-miterlimit:10;paint-order:markers stroke fill"
       aria-label="tomo-pipi" /><path
       d="m 339.03917,84.902987 c 1.42477,0 2.61207,-0.474922 3.64107,-1.50392 0.94985,-1.028998 1.42477,-2.216304 1.42477,-3.561917 0,-1.424766 -0.47492,-2.612072 -1.42477,-3.64107 -1.029,-0.949844 -2.2163,-1.424767 -3.64107,-1.424767 -1.34561,0 -2.53292,0.474923 -3.56191,1.424767 -1.029,1.028998 -1.50392,2.216304 -1.50392,3.64107 0,1.345613 0.47492,2.532919 1.50392,3.561917 1.02899,1.028998 2.2163,1.50392 3.56191,1.50392 z m 19.70927,0.158308 c 1.34562,0 2.53292,-0.474923 3.56192,-1.503921 1.029,-0.949844 1.50392,-2.13715 1.50392,-3.561916 0,-1.345613 -0.47492,-2.532919 -1.50392,-3.561917 -1.029,-1.028998 -2.2163,-1.50392 -3.56192,-1.50392 -1.42476,0 -2.61207,0.474922 -3.56191,1.50392 -1.029,1.028998 -1.50392,2.216304 -1.50392,3.561917 0,1.424766 0.47492,2.612072 1.50392,3.561916 0.94984,1.028998 2.13715,1.503921 3.56191,1.503921 z m -9.65675,26.753955 c 0.87069,0 1.66223,-0.31662 2.29546,-0.94985 0.55408,-0.63323 0.87069,-1.42477 0.87069,-2.29546 v -2.13715 l 7.04468,-0.1583 c 2.058,-0.31662 3.08699,-1.34562 3.08699,-3.087 -0.1583,-2.13715 -1.1873,-3.245299 -3.08699,-3.245299 l -7.12383,0.07915 v -3.64106 l 7.28214,0.158307 c 1.97884,-0.158307 3.00784,-1.187305 3.2453,-3.166148 -0.15831,-1.978842 -1.18731,-3.00784 -3.16615,-3.245301 l -7.44045,-0.07915 V 84.82384 c 0,-0.870691 -0.31661,-1.662228 -0.87069,-2.295458 -0.63323,-0.554076 -1.42476,-0.870691 -2.29545,-0.870691 -0.8707,0 -1.66223,0.316615 -2.21631,0.870691 -0.63323,0.554076 -0.94984,1.266459 -0.94984,2.13715 v 5.303298 l -8.3903,-0.158307 c -1.89968,0.158307 -2.92868,1.187305 -3.16614,3.086994 0.1583,1.978843 1.1873,3.007841 3.16614,3.245302 l 8.3903,0.158307 0.0791,0.870691 v 3.007833 l -6.64891,0.0792 c -2.058,0.39576 -3.08699,1.42477 -3.08699,3.08699 0.23746,2.21631 1.26645,3.32447 3.2453,3.32447 l 6.56975,-0.15831 v 2.13715 c 0,0.87069 0.31662,1.58307 0.94985,2.2163 0.63323,0.63323 1.34561,0.94985 2.2163,0.94985 z m 2.13715,-54.932673 c -4.51176,0 -8.62775,-0.554076 -12.50628,-1.662228 -1.18731,-0.474922 -1.97884,-0.870691 -2.53292,-1.187305 -0.55408,-0.316615 -0.87069,-0.554076 -0.94985,-0.791537 -0.0792,-0.237462 -0.1583,-0.316615 -0.1583,-0.395769 l -0.0792,-0.237461 c 0,-0.237461 0.79154,-0.791537 2.37461,-1.50392 2.61208,-0.870691 6.41145,-1.26646 11.55645,-1.26646 3.87853,0 7.28214,0.474923 10.05252,1.345613 1.34561,0.554076 2.2163,1.108152 2.53291,1.503921 0.31662,0.395768 0.47493,0.712383 0.47493,0.791537 0,0.07915 -0.0792,0.237461 -0.15831,0.474922 -0.15831,0.237461 -0.39577,0.474922 -0.71238,0.712383 -0.39577,0.237461 -0.8707,0.554076 -1.42477,0.791537 -0.55408,0.237461 -1.26646,0.474922 -2.058,0.712384 -0.79153,0.237461 -1.74138,0.395768 -2.77038,0.474922 -1.029,0.158307 -2.29545,0.237461 -3.64107,0.237461 z m -0.55407,6.41145 c 3.00784,0 5.85737,-0.316615 8.62775,-1.028998 2.69123,-0.712384 4.90753,-1.741382 6.56976,-3.245302 1.66223,-1.503921 2.53292,-3.403609 2.53292,-5.699067 0,-2.453765 -0.94985,-4.353453 -2.92869,-5.857374 -1.97884,-1.424766 -4.35345,-2.453764 -7.20299,-3.086994 -2.92868,-0.554076 -5.69906,-0.870691 -8.46944,-0.870691 h -2.21631 c -3.40361,0 -6.4906,0.237461 -9.34013,0.791537 -2.92869,0.554076 -5.22415,1.583074 -6.96553,2.928687 -1.74138,1.345613 -2.61207,3.245302 -2.61207,5.619913 0,2.612072 1.1873,4.670068 3.56191,6.173989 2.37462,1.50392 5.3033,2.612072 8.70691,3.245302 3.40361,0.712383 6.64891,1.028998 9.73591,1.028998 z m -1.26646,3.00784 c -4.19515,0 -8.15283,-0.554076 -12.03137,-1.583074 -3.87853,-1.028998 -6.96552,-2.532918 -9.41929,-4.590914 -2.45376,-2.057997 -3.72022,-4.590915 -3.72022,-7.598756 0,-2.13715 0.47492,-3.799377 1.42477,-5.14499 0.94984,-1.345613 2.45376,-2.453765 4.59091,-3.482763 4.35346,-2.057997 10.6066,-3.166148 18.60112,-3.245302 4.98668,0.07915 9.18183,0.554076 12.50629,1.266459 3.32445,0.712384 5.93652,1.662228 7.83621,2.849533 1.89969,1.187306 3.2453,2.532919 4.03684,4.036839 0.71238,1.503921 1.10815,3.166148 1.10815,4.90753 0,3.324455 -2.45376,6.253142 -7.36129,8.786061 -4.90753,2.532918 -10.7649,3.799377 -17.57212,3.799377 z m 0,6.41145 c 4.98668,0 9.89421,-0.791537 14.72259,-2.295457 4.82837,-1.503921 8.78606,-3.64107 11.87305,-6.490604 3.087,-2.770379 4.67007,-6.173988 4.67007,-10.210827 0,-2.691226 -0.63323,-5.303298 -1.89969,-7.757063 -1.26646,-2.453765 -3.2453,-4.590915 -5.85737,-6.332296 -2.13715,-1.424767 -5.3033,-2.691226 -9.49845,-3.799378 -4.19514,-1.028998 -9.02352,-1.583074 -14.56428,-1.583074 -8.46944,0 -15.59328,1.266459 -21.3715,3.878532 -2.92868,1.424766 -5.22414,3.324455 -6.96552,5.77822 -1.82054,2.453764 -2.69123,5.382451 -2.69123,8.627753 0,4.353454 1.50392,8.073678 4.51176,11.002365 3.00784,3.00784 6.88637,5.303298 11.71475,6.807218 4.82838,1.583074 9.89421,2.374611 15.35582,2.374611 z"
       id="text2-8"
       style="font-size:79.1537px;line-height:0em;font-family:'linja lipamanka';-inkscape-font-specification:'linja lipamanka';text-align:center;letter-spacing:0px;word-spacing:0px;text-anchor:middle;fill:#ff7800;stroke-width:2.38124;stroke-miterlimit:10;paint-order:markers stroke fill"
       aria-label="pipi+sike" /><path
       d="m 130.69295,143.12269 q -2.36436,0 -3.51277,-1.1484 -1.1484,-1.1484 -1.1484,-3.37765 v -4.23333 h -2.09414 v -2.5445 h 2.09414 v -3.24255 h 3.40017 v 3.24255 h 3.26507 v 2.5445 h -3.26507 v 4.09822 q 0,0.94574 0.42784,1.41862 0.45035,0.47287 1.41862,0.47287 0.29273,0 0.60797,-0.0676 0.33777,-0.0676 0.72057,-0.18014 l 0.49539,2.47695 q -0.47287,0.24769 -1.12589,0.3828 -0.65301,0.15762 -1.2835,0.15762 z m 8.87197,0 q -1.7789,0 -3.10744,-0.69804 -1.30603,-0.69805 -2.02659,-2.00408 -0.72057,-1.30603 -0.72057,-3.08492 0,-1.7789 0.72057,-3.06241 0.72056,-1.28351 2.02659,-1.98156 1.32854,-0.69805 3.10744,-0.69805 1.7789,0 3.08493,0.69805 1.32854,0.69805 2.04911,2.00408 0.74308,1.28351 0.74308,3.03989 0,1.77889 -0.74308,3.08492 -0.72057,1.30603 -2.04911,2.00408 -1.30603,0.69804 -3.08493,0.69804 z m 0,-2.5445 q 1.10337,0 1.7789,-0.78811 0.67553,-0.81064 0.67553,-2.45443 0,-1.6438 -0.67553,-2.4094 -0.67553,-0.78812 -1.7789,-0.78812 -1.08085,0 -1.75638,0.78812 -0.67553,0.7656 -0.67553,2.4094 0,1.64379 0.67553,2.45443 0.67553,0.78811 1.75638,0.78811 z m 7.9938,2.29681 v -11.05619 h 3.33262 v 2.07163 h -0.24769 q 0.29273,-0.69805 0.81063,-1.21596 0.51791,-0.51791 1.23848,-0.78812 0.72056,-0.29273 1.57624,-0.29273 1.28351,0 2.13918,0.60798 0.85567,0.60798 1.21595,1.86897 h -0.31524 q 0.49539,-1.1484 1.50868,-1.80142 1.03582,-0.67553 2.36436,-0.67553 1.28351,0 2.09415,0.51791 0.83315,0.49539 1.23847,1.5312 0.40532,1.0133 0.40532,2.58954 v 6.64272 h -3.40017 v -6.53013 q 0,-1.10337 -0.36029,-1.59876 -0.33776,-0.51791 -1.17092,-0.51791 -0.63049,0 -1.10336,0.31525 -0.47288,0.29273 -0.72057,0.87819 -0.22518,0.56294 -0.22518,1.3961 v 6.05726 h -3.40017 v -6.53013 q 0,-1.10337 -0.36028,-1.59876 -0.33777,-0.51791 -1.17092,-0.51791 -0.65302,0 -1.10337,0.31525 -0.45036,0.29273 -0.69805,0.87819 -0.2477,0.56294 -0.2477,1.3961 v 6.05726 z m 25.28738,0.24769 q -1.7789,0 -3.10745,-0.69804 -1.30602,-0.69805 -2.02659,-2.00408 -0.72057,-1.30603 -0.72057,-3.08492 0,-1.7789 0.72057,-3.06241 0.72057,-1.28351 2.02659,-1.98156 1.32855,-0.69805 3.10745,-0.69805 1.77889,0 3.08492,0.69805 1.32855,0.69805 2.04911,2.00408 0.74309,1.28351 0.74309,3.03989 0,1.77889 -0.74309,3.08492 -0.72056,1.30603 -2.04911,2.00408 -1.30603,0.69804 -3.08492,0.69804 z m 0,-2.5445 q 1.10336,0 1.77889,-0.78811 0.67554,-0.81064 0.67554,-2.45443 0,-1.6438 -0.67554,-2.4094 -0.67553,-0.78812 -1.77889,-0.78812 -1.08085,0 -1.75638,0.78812 -0.67554,0.7656 -0.67554,2.4094 0,1.64379 0.67554,2.45443 0.67553,0.78811 1.75638,0.78811 z m 14.20868,6.35 v -15.10938 h 3.33262 v 2.18422 h -0.22518 q 0.33777,-1.08085 1.35107,-1.73387 1.03581,-0.67553 2.36435,-0.67553 1.44114,0 2.52199,0.69805 1.10336,0.69805 1.71134,1.98156 0.60798,1.28351 0.60798,3.06241 0,1.77889 -0.60798,3.08492 -0.60798,1.30603 -1.68883,2.00408 -1.08085,0.69804 -2.5445,0.69804 -1.30602,0 -2.31932,-0.63049 -1.0133,-0.65301 -1.37358,-1.68883 h 0.27021 v 6.12482 z m 5.80957,-6.35 q 1.08085,0 1.75638,-0.78811 0.67553,-0.81064 0.67553,-2.45443 0,-1.6438 -0.67553,-2.4094 -0.67553,-0.78812 -1.75638,-0.78812 -1.10337,0 -1.7789,0.78812 -0.67553,0.7656 -0.67553,2.4094 0,1.64379 0.67553,2.45443 0.67553,0.78811 1.7789,0.78811 z m 7.79114,-10.89856 v -3.175 h 3.67038 v 3.175 z m 0.1351,13.19537 v -11.05619 h 3.40018 V 142.875 Z m 6.03474,4.05319 v -15.10938 h 3.33262 v 2.18422 h -0.22518 q 0.33777,-1.08085 1.35107,-1.73387 1.03581,-0.67553 2.36435,-0.67553 1.44114,0 2.52199,0.69805 1.10336,0.69805 1.71134,1.98156 0.60798,1.28351 0.60798,3.06241 0,1.77889 -0.60798,3.08492 -0.60798,1.30603 -1.68883,2.00408 -1.08085,0.69804 -2.5445,0.69804 -1.30602,0 -2.31932,-0.63049 -1.0133,-0.65301 -1.37358,-1.68883 h 0.27021 v 6.12482 z m 5.80957,-6.35 q 1.08085,0 1.75638,-0.78811 0.67553,-0.81064 0.67553,-2.45443 0,-1.6438 -0.67553,-2.4094 -0.67553,-0.78812 -1.75638,-0.78812 -1.10337,0 -1.7789,0.78812 -0.67553,0.7656 -0.67553,2.4094 0,1.64379 0.67553,2.45443 0.67553,0.78811 1.7789,0.78811 z m 7.79113,-10.89856 v -3.175 h 3.67039 v 3.175 z m 0.13511,13.19537 v -11.05619 h 3.40017 V 142.875 Z"
       id="text3"
       style="font-size:22.5177px;line-height:0em;font-family:'Nunito Sans';-inkscape-font-specification:'Nunito Sans @opsz=12,wght=800,wdth=100,YTLC=500';font-variation-settings:'opsz' 12, 'wdth' 100, 'wght' 800, 'YTLC' 500;text-align:center;letter-spacing:0px;word-spacing:0px;text-anchor:middle;stroke-width:2.38125;stroke-miterlimit:10;paint-order:markers stroke fill"
       aria-label="tomo pipi" /><path
       d="m 306.73018,146.92819 v -15.10938 h 3.33262 v 2.18422 h -0.22518 q 0.33777,-1.08085 1.35107,-1.73387 1.03581,-0.67553 2.36435,-0.67553 1.44114,0 2.52199,0.69805 1.10336,0.69805 1.71134,1.98156 0.60798,1.28351 0.60798,3.06241 0,1.77889 -0.60798,3.08492 -0.60798,1.30603 -1.68883,2.00408 -1.08085,0.69804 -2.5445,0.69804 -1.30602,0 -2.31932,-0.63049 -1.0133,-0.65301 -1.37358,-1.68883 h 0.27021 v 6.12482 z m 5.80957,-6.35 q 1.08085,0 1.75638,-0.78811 0.67553,-0.81064 0.67553,-2.45443 0,-1.6438 -0.67553,-2.4094 -0.67553,-0.78812 -1.75638,-0.78812 -1.10337,0 -1.7789,0.78812 -0.67553,0.7656 -0.67553,2.4094 0,1.64379 0.67553,2.45443 0.67553,0.78811 1.7789,0.78811 z m 7.79114,-10.89856 v -3.175 h 3.67038 v 3.175 z m 0.1351,13.19537 v -11.05619 h 3.40017 V 142.875 Z m 6.03474,4.05319 v -15.10938 h 3.33262 v 2.18422 h -0.22518 q 0.33776,-1.08085 1.35106,-1.73387 1.03582,-0.67553 2.36436,-0.67553 1.44113,0 2.52198,0.69805 1.10337,0.69805 1.71135,1.98156 0.60798,1.28351 0.60798,3.06241 0,1.77889 -0.60798,3.08492 -0.60798,1.30603 -1.68883,2.00408 -1.08085,0.69804 -2.5445,0.69804 -1.30603,0 -2.31932,-0.63049 -1.0133,-0.65301 -1.37358,-1.68883 h 0.27021 v 6.12482 z m 5.80956,-6.35 q 1.08085,0 1.75638,-0.78811 0.67553,-0.81064 0.67553,-2.45443 0,-1.6438 -0.67553,-2.4094 -0.67553,-0.78812 -1.75638,-0.78812 -1.10336,0 -1.7789,0.78812 -0.67553,0.7656 -0.67553,2.4094 0,1.64379 0.67553,2.45443 0.67554,0.78811 1.7789,0.78811 z m 7.79114,-10.89856 v -3.175 h 3.67039 v 3.175 z m 0.13511,13.19537 v -11.05619 h 3.40017 V 142.875 Z m 16.52798,0.24769 q -0.96826,0 -1.86897,-0.15762 -0.90071,-0.15762 -1.64379,-0.42784 -0.74309,-0.27021 -1.30603,-0.67553 l 0.81064,-2.20673 q 0.56294,0.33776 1.21595,0.60798 0.67553,0.24769 1.3961,0.3828 0.72057,0.1351 1.41862,0.1351 0.96826,0 1.39609,-0.29273 0.45036,-0.31524 0.45036,-0.81063 0,-0.45036 -0.29273,-0.67553 -0.29273,-0.22518 -0.85568,-0.31525 l -2.36435,-0.42784 q -1.3961,-0.24769 -2.1617,-1.0133 -0.74309,-0.78811 -0.74309,-2.00407 0,-1.12589 0.6305,-1.93652 0.63049,-0.83316 1.73386,-1.26099 1.12589,-0.45036 2.5445,-0.45036 0.81064,0 1.57624,0.13511 0.7656,0.1351 1.44113,0.40532 0.69805,0.27021 1.23848,0.72056 l -0.85568,2.18422 q -0.42783,-0.33777 -1.01329,-0.58546 -0.58546,-0.24769 -1.19344,-0.3828 -0.60798,-0.15762 -1.1484,-0.15762 -1.0133,0 -1.46365,0.33776 -0.45036,0.31525 -0.45036,0.81064 0,0.3828 0.2477,0.65301 0.27021,0.2477 0.81063,0.33777 l 2.36436,0.42783 q 1.46365,0.2477 2.22925,0.99078 0.76561,0.72057 0.76561,1.98156 0,1.1484 -0.60798,1.98156 -0.60798,0.81063 -1.71135,1.26099 -1.10336,0.42783 -2.58953,0.42783 z m 6.71029,-13.44306 v -3.175 h 3.67038 v 3.175 z m 0.1351,13.19537 v -11.05619 h 3.40018 V 142.875 Z m 6.03474,0 v -15.87498 h 3.40017 v 9.38988 h 0.045 l 4.0757,-4.57109 h 4.03067 l -5.24662,5.92215 v -1.2835 l 5.4718,6.41754 h -4.09822 l -4.23333,-4.77375 h -0.045 v 4.77375 z m 18.11703,0.24769 q -1.95904,0 -3.37766,-0.69804 -1.3961,-0.72057 -2.1617,-2.00408 -0.74308,-1.30603 -0.74308,-3.06241 0,-1.71134 0.72056,-2.99485 0.72057,-1.30603 2.00408,-2.02659 1.30603,-0.74309 2.94982,-0.74309 1.62127,0 2.79219,0.69805 1.17092,0.67553 1.80142,1.93652 0.65301,1.26099 0.65301,2.99486 v 0.85567 h -8.12889 v -1.75638 h 5.67446 l -0.36028,0.31525 q 0,-1.37358 -0.60798,-2.07163 -0.58546,-0.72057 -1.68883,-0.72057 -0.83315,0 -1.41861,0.3828 -0.58546,0.3828 -0.90071,1.10337 -0.31525,0.72057 -0.31525,1.73386 v 0.18014 q 0,1.14841 0.33777,1.89149 0.36028,0.72057 1.05833,1.08085 0.72057,0.36028 1.7789,0.36028 0.90071,0 1.82393,-0.27021 0.92323,-0.27021 1.66631,-0.83315 l 0.90071,2.27428 q -0.83315,0.6305 -2.04911,1.0133 -1.19344,0.36028 -2.40939,0.36028 z"
       id="text3-1"
       style="font-size:22.5177px;line-height:0em;font-family:'Nunito Sans';-inkscape-font-specification:'Nunito Sans @opsz=12,wght=800,wdth=100,YTLC=500';font-variation-settings:'opsz' 12, 'wdth' 100, 'wght' 800, 'YTLC' 500;text-align:center;letter-spacing:0px;word-spacing:0px;text-anchor:middle;stroke-width:2.38125;stroke-miterlimit:10;paint-order:markers stroke fill"
       aria-label="pipi sike" /></g></svg>
