<svg viewBox="0 0 90.004 40.004" xmlns="http://www.w3.org/2000/svg"><g stroke-linecap="round" fill-rule="nonzero" font-size="9pt" stroke="var(--pimeja)" stroke-width="0.002" fill="var(--pimeja)" style="stroke:var(--pimeja);stroke-width:0.002;fill:var(--pimeja)"><path d="M 15.837 33.336 L 15.837 40.003 A 14.174 14.174 0 0 1 4.413 33.85 A 23.528 23.528 0 0 1 4.337 33.753 A 22.65 22.65 0 0 1 0.004 20.003 A 23.179 23.179 0 0 1 2.587 9.128 A 17.662 17.662 0 0 1 9.337 1.753 Q 12.504 0.003 15.837 0.003 A 12.766 12.766 0 0 1 23.754 2.586 Q 27.171 5.169 29.171 9.086 A 24.232 24.232 0 0 1 38.462 2.461 A 31.341 31.341 0 0 1 50.837 0.003 A 66.758 66.758 0 0 1 71.379 3.044 A 39.528 39.528 0 0 1 82.743 8.612 A 27.071 27.071 0 0 1 86.171 11.586 A 12.093 12.093 0 0 1 90.004 20.003 Q 90.004 28.214 77.948 34.204 A 50.653 50.653 0 0 1 77.337 34.503 A 56.869 56.869 0 0 1 57.261 39.74 A 76.518 76.518 0 0 1 50.837 40.003 Q 43.171 40.003 36.712 36.753 Q 30.254 33.503 27.171 28.169 A 16.645 16.645 0 0 1 25.004 20.003 Q 25.004 15.003 22.462 10.836 A 7.567 7.567 0 0 0 15.837 6.669 A 7.567 7.567 0 0 0 9.212 10.836 Q 6.671 15.003 6.671 20.003 Q 6.671 25.003 9.212 29.169 A 7.567 7.567 0 0 0 15.837 33.336 Z M 37.629 10.378 A 11.038 11.038 0 0 0 31.671 20.003 A 11.038 11.038 0 0 0 37.629 29.628 Q 43.587 33.336 50.837 33.336 A 57.335 57.335 0 0 0 69.754 30.365 A 46.767 46.767 0 0 0 74.504 28.419 A 24.927 24.927 0 0 0 80.921 24.211 A 6.754 6.754 0 0 0 83.319 20.335 A 3.133 3.133 0 0 0 83.337 20.003 A 5.916 5.916 0 0 0 81.213 16.079 A 15.068 15.068 0 0 0 80.921 15.794 A 24.927 24.927 0 0 0 74.504 11.586 A 52.594 52.594 0 0 0 54.528 6.767 A 69.018 69.018 0 0 0 50.837 6.669 Q 43.587 6.669 37.629 10.378 Z M 45.004 20.003 A 4.023 4.023 0 0 1 46.212 17.044 A 4.023 4.023 0 0 1 49.171 15.836 A 4.023 4.023 0 0 1 52.129 17.044 A 4.023 4.023 0 0 1 53.337 20.003 A 4.023 4.023 0 0 1 52.129 22.961 A 4.023 4.023 0 0 1 49.171 24.169 A 4.023 4.023 0 0 1 46.212 22.961 A 4.023 4.023 0 0 1 45.004 20.003 Z M 61.671 20.003 A 4.023 4.023 0 0 1 62.879 17.044 A 4.023 4.023 0 0 1 65.837 15.836 A 4.023 4.023 0 0 1 68.796 17.044 A 4.023 4.023 0 0 1 70.004 20.003 A 4.023 4.023 0 0 1 68.796 22.961 A 4.023 4.023 0 0 1 65.837 24.169 A 4.023 4.023 0 0 1 62.879 22.961 A 4.023 4.023 0 0 1 61.671 20.003 Z"/></g></svg>