<svg width="0.5em" height="0.5em" viewBox="0 0 70.84 62.3" xmlns="http://www.w3.org/2000/svg"><g  stroke-linecap="round" fill-rule="nonzero" font-size="9pt" stroke="var(--pimeja)" stroke-width="0.8" fill="var(--pimeja)" style="stroke:var(--pimeja);stroke-width:0.8;fill:var(--pimeja)"><path d="M 47.6 47.6 L 47.6 62.3 L 42 62.3 L 42 42 L 60.76 42 L 38.36 5.6 L 6.3 5.6 L 6.3 0 L 41.44 0 L 70.84 47.6 L 47.6 47.6 Z M 5.6 62.3 L 0 62.3 L 0 42 L 5.6 42 L 5.6 62.3 Z M 19.6 62.3 L 14 62.3 L 14 42 L 19.6 42 L 19.6 62.3 Z M 33.6 62.3 L 28 62.3 L 28 42 L 33.6 42 L 33.6 62.3 Z M 24.815 32.655 Q 23.8 31.01 23.8 28.7 Q 23.8 26.39 24.815 24.745 Q 25.83 23.1 27.3 23.1 Q 28.77 23.1 29.785 24.745 Q 30.8 26.39 30.8 28.7 Q 30.8 31.01 29.785 32.655 Q 28.77 34.3 27.3 34.3 Q 25.83 34.3 24.815 32.655 Z M 38.815 32.655 Q 37.8 31.01 37.8 28.7 Q 37.8 26.39 38.815 24.745 Q 39.83 23.1 41.3 23.1 Q 42.77 23.1 43.785 24.745 Q 44.8 26.39 44.8 28.7 Q 44.8 31.01 43.785 32.655 Q 42.77 34.3 41.3 34.3 Q 39.83 34.3 38.815 32.655 Z"/></g></svg>